:SAMPLES-PER-SECOND 30
:FULLY-SPECIFIED
:DEGREES
32
root  -62.4694 40.1548 -4.61865 -5.77289 76.2052 -2.3294
RightUpLeg  -21.6499 -13.574 3.79684
RightLeg  19.3903 -2.35289 -1.0111
RightFoot  -0.764758 -0.623981 6.68036
RightToes  0.000482159 0.542163 -0.142577
Spine  12.3165 0.4005 0.143555
Spine1  8.4281 0.359498 -0.351613
HEad  2.646 7.74033 -4.9239
LeftShoulder1  5.33911 -7.57696 -41.7721
LeftArm  -16.9596 29.756 -45.6817
LeftForeArm  39.6031 -8.37003 -3.80988
LeftHand  -0.25398 0.0180481 5.50724
RightShoulder  3.98925 6.4015 34.3176
RightArm  -11.2295 -29.7351 47.4038
RightForeArm  19.5419 13.5422 5.26951
RightHand  -0.583297 0.0387912 -12.5144
LeftUpLeg  9.71989 7.62702 -1.59492
LeftLeg  13.1904 19.7734 -0.278687
LeftFoot  -20.0751 0.0672334 -0.692987
LeftToes  1.06246e-005 4.65855e-005 -8.18503e-006
33
root  -61.6838 39.9876 -4.63446 -4.38486 76.626 -1.14737
RightUpLeg  -21.3149 -13.6112 4.25652
RightLeg  12.6681 -3.87754 0.727676
RightFoot  -1.13376 -0.599026 6.61283
RightToes  0.000482159 0.542163 -0.142577
Spine  12.39 0.195463 -0.536931
Spine1  8.91843 -0.107369 0.379924
HEad  1.7709 8.10397 -5.36192
LeftShoulder1  5.54318 -7.90747 -42.142
LeftArm  -15.941 29.1742 -45.1197
LeftForeArm  41.4944 -7.72997 -4.0043
LeftHand  -0.25398 0.0180481 5.50724
RightShoulder  4.10467 6.64679 34.4803
RightArm  -8.17751 -31.4205 48.8145
RightForeArm  20.264 14.2844 5.55255
RightHand  -0.349593 -2.13097 -12.0334
LeftUpLeg  10.9599 7.3825 -2.01851
LeftLeg  12.7364 19.5869 -0.687199
LeftFoot  -20.9136 0.0444312 -0.968272
LeftToes  1.06246e-005 4.65855e-005 -8.18503e-006
34
root  -60.8224 39.8006 -4.64901 -2.81083 77.4193 0.185899
RightUpLeg  -21.0058 -8.63171 2.20162
RightLeg  7.93884 -9.47207 3.26095
RightFoot  -1.02175 -0.583623 6.37854
RightToes  0.000482159 0.542163 -0.142577
Spine  12.4442 -0.128412 -0.966309
Spine1  9.35663 -0.66798 0.996007
HEad  0.902885 8.56675 -5.77657
LeftShoulder1  5.70169 -8.1771 -42.3644
LeftArm  -14.8747 28.3771 -43.4267
LeftForeArm  42.8089 -8.01485 -4.22258
LeftHand  -0.25398 0.0180481 5.50724
RightShoulder  4.14639 6.77574 34.3801
RightArm  -4.09205 -32.3441 49.3162
RightForeArm  21.2284 15.1918 5.73668
RightHand  -0.195174 -3.5302 -10.9749
LeftUpLeg  12.3882 7.14442 -2.39152
LeftLeg  12.1082 19.1727 -1.16748
LeftFoot  -21.6078 0.0272745 -1.14241
LeftToes  1.06246e-005 4.65855e-005 -8.18503e-006
35
root  -59.8833 39.582 -4.65891 -1.93215 78.2196 0.847002
RightUpLeg  -21.5426 -6.42542 1.63278
RightLeg  6.12656 -10.6806 4.23463
RightFoot  -0.914977 -0.59299 6.42113
RightToes  0.000482159 0.542163 -0.142577
Spine  12.4675 -0.418198 -0.876795
Spine1  9.89158 -1.08325 1.32839
HEad  -0.0691156 8.81161 -6.13791
LeftShoulder1  5.83832 -8.41614 -42.5232
LeftArm  -13.9007 27.0462 -41.1223
LeftForeArm  42.5045 -8.64371 -4.42342
LeftHand  -0.25398 0.0180481 5.50724
RightShoulder  4.14875 6.8395 34.1573
RightArm  -0.396319 -32.2699 48.9058
RightForeArm  22.6285 15.799 5.81172
RightHand  -0.176206 -3.45457 -9.46798
LeftUpLeg  13.9486 7.02024 -2.48955
LeftLeg  11.6293 18.4839 -1.6026
LeftFoot  -22.3877 0.00249328 -1.35941
LeftToes  1.06246e-005 4.65855e-005 -8.18503e-006
36
root  -58.8634 39.3507 -4.63918 -2.68968 79.2418 -0.0730414
RightUpLeg  -22.2193 -6.51059 2.4102
RightLeg  6.96189 -9.06607 3.8984
RightFoot  -0.830297 -0.570229 6.12178
RightToes  0.000482159 0.542163 -0.142577
Spine  12.5072 -0.729479 -0.496891
Spine1  10.4775 -1.54053 1.79492
HEad  -1.07306 9.02297 -6.42163
LeftShoulder1  5.91074 -8.5761 -42.4801
LeftArm  -13.4052 25.206 -38.8323
LeftForeArm  40.8022 -9.46546 -4.45919
LeftHand  -0.25398 0.0180481 5.50724
RightShoulder  4.14218 6.90461 33.8466
RightArm  1.62825 -31.1967 47.8171
RightForeArm  23.5791 15.7312 5.95784
RightHand  -0.217191 -2.73517 -8.7867
LeftUpLeg  15.5419 7.31189 -1.95247
LeftLeg  11.6086 16.6321 -1.82986
LeftFoot  -23.3469 -0.0941886 -2.22263
LeftToes  1.06246e-005 4.65855e-005 -8.18503e-006
37
root  -57.755 39.1738 -4.5762 -6.86276 80.9745 -4.4681
RightUpLeg  -22.7506 -7.9719 4.07138
RightLeg  9.30933 -7.05319 2.963
RightFoot  0.000786688 -0.367414 3.74692
RightToes  0.000482159 0.542163 -0.142577
Spine  12.449 -1.26737 0.0834357
Spine1  11.0438 -2.39554 2.82891
HEad  -1.99649 9.61205 -6.70484
LeftShoulder1  5.89597 -8.66069 -42.0531
LeftArm  -13.7616 23.298 -36.956
LeftForeArm  38.0226 -10.8248 -4.20011
LeftHand  -0.25398 0.0180481 5.50724
RightShoulder  4.10747 6.90957 33.4966
RightArm  1.33353 -29.3029 46.2609
RightForeArm  23.9512 14.9078 6.20152
RightHand  -0.243328 -2.51418 -9.25547
LeftUpLeg  17.0642 8.25056 -0.416997
LeftLeg  12.009 13.1611 -1.65493
LeftFoot  -23.7797 -0.239537 -3.51187
LeftToes  1.06246e-005 4.65855e-005 -8.18503e-006
38
root  -56.5342 39.0773 -4.48249 -17.0746 82.9263 -14.9185
RightUpLeg  -23.3589 -10.3117 6.41819
RightLeg  12.6342 -5.05163 1.52914
RightFoot  1.75287 0.0686164 -0.472352
RightToes  0.000482159 0.542163 -0.142577
Spine  12.3423 -1.92438 1.16366
Spine1  11.3992 -3.40964 4.1573
HEad  -2.46043 9.04222 -6.64522
LeftShoulder1  5.86658 -8.77692 -41.405
LeftArm  -14.7936 21.6938 -35.4722
LeftForeArm  34.5359 -12.9681 -3.70297
LeftHand  -0.25398 0.0180481 5.50724
RightShoulder  4.0386 6.80828 33.2177
RightArm  -1.49364 -26.9706 44.2866
RightForeArm  24.5234 13.6003 6.24299
RightHand  -0.247316 -2.6747 -9.94413
LeftUpLeg  18.5614 9.86523 2.05856
LeftLeg  12.803 8.74095 -1.03484
LeftFoot  -23.1776 -0.360922 -4.81687
LeftToes  1.06246e-005 4.65855e-005 -8.18503e-006
39
root  -55.1918 39.0068 -4.37506 -30.469 83.8414 -28.3195
RightUpLeg  -23.9672 -12.1711 8.70467
RightLeg  16.7748 -3.06097 -0.255613
RightFoot  2.99208 0.51624 -3.97024
RightToes  0.000482159 0.542163 -0.142577
Spine  12.5419 -2.30766 2.74144
Spine1  11.206 -3.88645 5.07933
HEad  -2.40053 7.70087 -6.59658
LeftShoulder1  5.88649 -8.96087 -40.8965
LeftArm  -16.0813 20.4605 -34.1194
LeftForeArm  31.2964 -15.8526 -3.22135
LeftHand  -0.25398 0.0180481 5.50724
RightShoulder  4.00098 6.76168 33.03
RightArm  -6.1798 -24.648 42.0466
RightForeArm  24.5266 12.3006 5.80934
RightHand  -0.284893 -2.36078 -10.4489
LeftUpLeg  19.9327 12.1904 4.922
LeftLeg  14.6772 3.92721 -0.218573
LeftFoot  -21.97 -0.540353 -7.20506
LeftToes  1.06246e-005 4.65855e-005 -8.18503e-006
40
root  -53.7965 38.9429 -4.25736 -37.995 83.655 -35.7277
RightUpLeg  -23.9525 -11.3939 9.5256
RightLeg  20.8418 -3.18343 -1.66594
RightFoot  2.31649 0.6677 -5.4389
RightToes  0.000482159 0.542163 -0.142577
Spine  13.1203 -2.36568 4.42272
Spine1  10.451 -3.67668 5.34663
HEad  -1.90457 6.93335 -6.82796
LeftShoulder1  5.89808 -9.08612 -40.543
LeftArm  -17.5848 19.5726 -32.7741
LeftForeArm  29.3658 -19.5789 -3.09438
LeftHand  -0.25398 0.0180481 5.50724
RightShoulder  4.01476 6.86664 32.7701
RightArm  -10.9806 -22.3834 40.0502
RightForeArm  21.3015 11.4363 5.16903
RightHand  -0.426365 -1.32382 -11.9193
LeftUpLeg  19.9654 13.6671 7.04365
LeftLeg  19.1266 0.278795 0.477187
LeftFoot  -19.7505 -0.74179 -11.8418
LeftToes  1.06246e-005 4.65855e-005 -8.18503e-006
41
root  -52.4543 38.908 -4.12694 -41.9105 83.4595 -39.8374
RightUpLeg  -23.5084 -9.85749 9.46806
RightLeg  24.0942 -4.68046 -2.50575
RightFoot  -0.118959 0.58879 -5.99808
RightToes  0.000482159 0.542163 -0.142577
Spine  13.5643 -2.49088 6.01106
Spine1  9.52699 -3.32581 5.2464
HEad  -1.13595 6.94246 -6.9679
LeftShoulder1  5.8443 -9.10719 -40.0676
LeftArm  -19.6328 19.0327 -31.5441
LeftForeArm  29.5065 -24.5767 -3.68092
LeftHand  -0.25398 0.0180481 5.50724
RightShoulder  3.94672 6.83271 32.2356
RightArm  -14.168 -19.8617 38.8706
RightForeArm  13.9802 11.3925 4.92692
RightHand  -0.744853 0.222192 -15.3122
LeftUpLeg  16.5616 10.8359 7.09463
LeftLeg  27.7593 1.19372 1.07811
LeftFoot  -13.9789 -0.283815 -16.3954
LeftToes  1.06246e-005 4.65855e-005 -8.18503e-006
42
root  -51.2083 38.9067 -3.99592 -49.2843 83.5804 -47.7723
RightUpLeg  -23.0623 -10.3429 9.89795
RightLeg  26.3706 -5.06128 -2.95725
RightFoot  -3.02097 0.457778 -6.56138
RightToes  0.000482159 0.542163 -0.142577
Spine  13.5439 -2.74743 7.79756
Spine1  8.77713 -3.0877 5.00072
HEad  -0.425681 7.01575 -6.75032
LeftShoulder1  5.81624 -9.21657 -39.4841
LeftArm  -21.866 18.7211 -30.5645
LeftForeArm  31.6724 -31.106 -5.04165
LeftHand  -0.25398 0.0180481 5.50724
RightShoulder  3.69801 6.38287 31.4509
RightArm  -14.623 -17.2568 38.4686
RightForeArm  5.14717 13.0437 5.20136
RightHand  -1.21897 2.09322 -19.0356
LeftUpLeg  10.0143 7.20203 6.74473
LeftLeg  39.27 2.27446 2.3554
LeftFoot  -2.81202 1.16 -16.1134
LeftToes  1.06246e-005 4.65855e-005 -8.18503e-006
43
root  -50.0356 38.8799 -3.8889 -59.9871 83.3678 -58.8786
RightUpLeg  -22.3736 -11.5908 10.6653
RightLeg  28.2733 -4.82279 -3.05088
RightFoot  -5.68276 0.289525 -6.58996
RightToes  0.000482159 0.542163 -0.142577
Spine  13.5868 -2.91198 10.2359
Spine1  8.25605 -2.59681 4.72575
HEad  0.0763909 6.40449 -6.25833
LeftShoulder1  5.91852 -9.5551 -39.1043
LeftArm  -23.3221 18.4072 -29.9025
LeftForeArm  34.9351 -38.7192 -6.81232
LeftHand  -0.25398 0.0180481 5.50724
RightShoulder  3.43629 5.85782 30.7507
RightArm  -12.0289 -15.4134 38.0793
RightForeArm  -2.4005 17.4237 5.34564
RightHand  -1.56118 3.4398 -20.662
LeftUpLeg  2.50147 3.56755 6.73274
LeftLeg  50.412 1.88482 2.83947
LeftFoot  8.56172 1.88451 -10.9725
LeftToes  1.06246e-005 4.65855e-005 -8.18503e-006
44
root  -48.8161 38.9595 -3.76939 -63.5494 83.0308 -62.273
RightUpLeg  -20.3756 -12.6351 10.7541
RightLeg  29.0567 -4.05187 -2.70055
RightFoot  -7.92713 0.120496 -5.81435
RightToes  0.000482159 0.542163 -0.142577
Spine  13.9657 -2.6107 11.8717
Spine1  7.7229 -1.72773 4.42418
HEad  0.565019 5.19016 -5.67849
LeftShoulder1  6.06767 -9.92243 -38.9848
LeftArm  -24.0549 18.0252 -29.6076
LeftForeArm  38.8711 -46.365 -8.98572
LeftHand  -0.25398 0.0180481 5.50724
RightShoulder  3.41666 5.88219 30.4402
RightArm  -9.25461 -14.6447 37.056
RightForeArm  -6.02928 24.0828 5.43708
RightHand  -1.61025 3.75617 -20.5559
LeftUpLeg  -3.75454 1.17529 6.66766
LeftLeg  58.6151 1.01946 2.36655
LeftFoot  12.7096 1.3991 -6.82428
LeftToes  1.06246e-005 4.65855e-005 -8.18503e-006
